# xmcd CD database file
#
# Track frame offsets:
#	150
#	19532
#	39455
#	57737
#	76350
#	91760
#	108010
#	120590
#	137560
#	150667
#	173262
#	188070
#	205922
#	206737
#	207637
#	208490
#	209335
#	210202
#	211165
#	223297
#
# Disc length: 4440 seconds
#
# Revision: 0
# Processed by: cddbd v1.5.1PL0 Copyright (c) Steve Scherf et al.
# Submitted via: CDex 1.51
#
DISCID=23115614
DTITLE=麦わら海賊団 - ワンピースキャラソンカーニバルDISC2
DYEAR=2005
DGENRE=Anime
TTITLE0=ウィーアー！〜7人の麦わら海賊団篇
TTITLE1=Every-one Peace!
TTITLE2=hurricana girls
TTITLE3=RESPECT!
TTITLE4=GIRLSに首ったけ
TTITLE5=サルあがりサルベージ
TTITLE6=RUMBLE　BALL　チョッパー七段変化
TTITLE7=フレンズ
TTITLE8=プレゼント
TTITLE9=Twinkle Twinkle〜チョッパーのクリスマスソング
TTITLE10=歌え！クリスマス〜ジングルベル
TTITLE11=Family〜７人の麦わら海賊団篇
TTITLE12=ワンピースアイキャッチ音楽　ルフィ
TTITLE13=ワンピースアイキャッチ音楽　ゾロ
TTITLE14=ワンピースアイキャッチ音楽　ナミ
TTITLE15=ワンピースアイキャッチ音楽　ウソップ
TTITLE16=ワンピースアイキャッチ音楽　サンジ
TTITLE17=ワンピースアイキャッチ音楽　チョッパー
TTITLE18=ワンピースアイキャッチ音楽　ニコ・ロビン
TTITLE19=雑談会
EXTD=YEAR: 2005/2/19
EXTT0=
EXTT1=
EXTT2=
EXTT3=
EXTT4=
EXTT5=
EXTT6=
EXTT7=
EXTT8=
EXTT9=
EXTT10=
EXTT11=
EXTT12=
EXTT13=
EXTT14=
EXTT15=
EXTT16=
EXTT17=
EXTT18=
EXTT19=
PLAYORDER=
